<svg width="24" height="24" viewBox="0 0 24 24" fill="none" xmlns="http://www.w3.org/2000/svg">
<path d="M10.8537 16.6233V16.5143C10.8662 15.3579 10.9909 14.4375 11.2279 13.7533C11.4649 13.0692 11.8016 12.5151 12.2381 12.0913C12.6746 11.6675 13.1984 11.2769 13.8095 10.9197C14.1774 10.7017 14.5079 10.4444 14.801 10.1477C15.0941 9.84496 15.3248 9.49681 15.4932 9.10325C15.6678 8.70969 15.7551 8.27374 15.7551 7.79541C15.7551 7.20204 15.6117 6.68738 15.3248 6.25143C15.038 5.81549 14.6545 5.47945 14.1743 5.24331C13.6942 5.00717 13.161 4.8891 12.5748 4.8891C12.0635 4.8891 11.5709 4.99203 11.0969 5.1979C10.623 5.40376 10.227 5.72769 9.90901 6.16969C9.59099 6.6117 9.40703 7.18993 9.35714 7.9044H7C7.04989 6.87508 7.32426 5.9941 7.82313 5.26147C8.32823 4.52884 8.99235 3.96877 9.81548 3.58126C10.6448 3.19375 11.5646 3 12.5748 3C13.6723 3 14.6264 3.21192 15.4371 3.63575C16.254 4.05959 16.8838 4.64085 17.3265 5.37954C17.7755 6.11823 18 6.95985 18 7.9044C18 8.57043 17.894 9.17288 17.682 9.71176C17.4762 10.2506 17.1769 10.732 16.784 11.1558C16.3974 11.5797 15.9297 11.9551 15.381 12.282C14.8322 12.615 14.3926 12.9662 14.0621 13.3356C13.7316 13.6989 13.4915 14.1318 13.3418 14.6343C13.1922 15.1369 13.1111 15.7635 13.0986 16.5143V16.6233H10.8537ZM12.051 22C11.5896 22 11.1936 21.8395 10.8631 21.5186C10.5326 21.1977 10.3673 20.8133 10.3673 20.3652C10.3673 19.9171 10.5326 19.5327 10.8631 19.2118C11.1936 18.8909 11.5896 18.7304 12.051 18.7304C12.5125 18.7304 12.9084 18.8909 13.2389 19.2118C13.5694 19.5327 13.7347 19.9171 13.7347 20.3652C13.7347 20.6619 13.6567 20.9344 13.5009 21.1826C13.3512 21.4308 13.1485 21.6307 12.8929 21.782C12.6434 21.9273 12.3628 22 12.051 22Z" fill="white"/>
</svg>
