<svg width="24" height="24" viewBox="0 0 24 24" fill="white" xmlns="http://www.w3.org/2000/svg">
<path fill-rule="evenodd" clip-rule="evenodd" d="M22 22L12 2L2 22H22ZM19.5 20.5L12 5L4.5 20.5H19.5Z"/>
<path d="M12.7556 9L12.6444 16.1318H11.3556L11.2444 9H12.7556ZM12 19C11.7259 19 11.4907 18.9144 11.2944 18.7432C11.0981 18.572 11 18.3669 11 18.1279C11 17.8889 11.0981 17.6838 11.2944 17.5126C11.4907 17.3414 11.7259 17.2558 12 17.2558C12.2741 17.2558 12.5093 17.3414 12.7056 17.5126C12.9019 17.6838 13 17.8889 13 18.1279C13 18.2862 12.9537 18.4315 12.8611 18.564C12.7722 18.6964 12.6519 18.803 12.5 18.8837C12.3519 18.9612 12.1852 19 12 19Z"/>
</svg>
