<svg width="24" height="24" viewBox="0 0 24 24" fill="white" xmlns="http://www.w3.org/2000/svg">
<path fill-rule="evenodd" clip-rule="evenodd" d="M13.6823 3.05501C12.9281 1.64833 10.9111 1.64833 10.1569 3.05501L2.24011 17.8221C1.52582 19.1545 2.49103 20.7671 4.00278 20.7671H19.8364C21.3482 20.7671 22.3134 19.1545 21.5991 17.8221L13.6823 3.05501ZM12.805 4.45414C12.4305 3.74046 11.4087 3.74046 11.0342 4.45414L4.02813 17.8024C3.67864 18.4683 4.16157 19.2671 4.91358 19.2671H18.9256C19.6776 19.2671 20.1606 18.4683 19.8111 17.8024L12.805 4.45414Z"/>
<path d="M12.7556 7L12.6444 14.845H11.3556L11.2444 7H12.7556ZM12 18C11.7259 18 11.4907 17.9058 11.2944 17.7175C11.0981 17.5292 11 17.3036 11 17.0407C11 16.7778 11.0981 16.5522 11.2944 16.3639C11.4907 16.1755 11.7259 16.0814 12 16.0814C12.2741 16.0814 12.5093 16.1755 12.7056 16.3639C12.9019 16.5522 13 16.7778 13 17.0407C13 17.2148 12.9537 17.3747 12.8611 17.5203C12.7722 17.666 12.6519 17.7833 12.5 17.8721C12.3519 17.9574 12.1852 18 12 18Z"/>
</svg>
