<svg width="24" height="24" viewBox="0 0 24 24" fill="white" xmlns="http://www.w3.org/2000/svg">
<path fill-rule="evenodd" clip-rule="evenodd" d="M3 5C1.89543 5 1 5.89543 1 7V17C1 18.1046 1.89543 19 3 19H19C20.1046 19 21 18.1046 21 17V7C21 5.89543 20.1046 5 19 5H3ZM3 6C2.44772 6 2 6.44771 2 7V17C2 17.5523 2.44772 18 3 18H19C19.5523 18 20 17.5523 20 17V7C20 6.44772 19.5523 6 19 6H3Z"/>
<path d="M20 10C20 9.44772 20.4477 9 21 9H22C22.5523 9 23 9.44772 23 10V14C23 14.5523 22.5523 15 22 15H21C20.4477 15 20 14.5523 20 14V10Z"/>
<rect x="2" y="6" width="11" height="12" fill-opacity="0.6"/>
</svg>
