<svg width="24" height="24" viewBox="0 0 24 24" fill="white" xmlns="http://www.w3.org/2000/svg">
<path fill-rule="evenodd" clip-rule="evenodd" d="M23 4.4375C23 5.19689 22.3844 5.8125 21.625 5.8125H2.375C1.61561 5.8125 1 5.19689 1 4.4375C1 3.67811 1.61561 3.0625 2.375 3.0625H21.625C22.3844 3.0625 23 3.67811 23 4.4375Z"/>
<path fill-rule="evenodd" clip-rule="evenodd" d="M23 12C23 12.7594 22.3844 13.375 21.625 13.375H2.375C1.61561 13.375 1 12.7594 1 12C1 11.2406 1.61561 10.625 2.375 10.625H21.625C22.3844 10.625 23 11.2406 23 12Z"/>
<path fill-rule="evenodd" clip-rule="evenodd" d="M23 19.5625C23 20.3219 22.3844 20.9375 21.625 20.9375H2.375C1.61561 20.9375 1 20.3219 1 19.5625C1 18.8031 1.61561 18.1875 2.375 18.1875H21.625C22.3844 18.1875 23 18.8031 23 19.5625Z"/>
</svg>
