<svg width="24" height="24" viewBox="0 0 24 24" fill="white" xmlns="http://www.w3.org/2000/svg">
<path fill-rule="evenodd" clip-rule="evenodd" d="M12 20C16.4183 20 20 16.4183 20 12C20 7.58172 16.4183 4 12 4C7.58172 4 4 7.58172 4 12C4 16.4183 7.58172 20 12 20ZM12 21C16.9706 21 21 16.9706 21 12C21 7.02944 16.9706 3 12 3C7.02944 3 3 7.02944 3 12C3 16.9706 7.02944 21 12 21Z"/>
<path fill-rule="evenodd" clip-rule="evenodd" d="M12 13.8C12.9941 13.8 13.8 12.9941 13.8 12C13.8 11.0059 12.9941 10.2 12 10.2C11.0059 10.2 10.2 11.0059 10.2 12C10.2 12.9941 11.0059 13.8 12 13.8ZM12 15C13.6569 15 15 13.6569 15 12C15 10.3431 13.6569 9 12 9C10.3431 9 9 10.3431 9 12C9 13.6569 10.3431 15 12 15Z"/>
<path d="M10 4H14L12 7L10 4Z"/>
<path d="M14 20H10L12 17L14 20Z"/>
<path d="M20 10V14L17 12L20 10Z"/>
<path d="M4 14V10L7 12L4 14Z"/>
</svg>
