<svg width="24" height="24" viewBox="0 0 24 24" fill="white" xmlns="http://www.w3.org/2000/svg">
<path fill-rule="evenodd" clip-rule="evenodd" d="M12 16C14.2091 16 16 14.2091 16 12C16 9.79086 14.2091 8 12 8C9.79086 8 8 9.79086 8 12C8 14.2091 9.79086 16 12 16ZM12 14.25C13.2426 14.25 14.25 13.2426 14.25 12C14.25 10.7574 13.2426 9.75 12 9.75C10.7574 9.75 9.75 10.7574 9.75 12C9.75 13.2426 10.7574 14.25 12 14.25Z"/>
<path d="M5 5C5 6.10457 4.10457 7 3 7C1.89543 7 1 6.10457 1 5C1 3.89543 1.89543 3 3 3C4.10457 3 5 3.89543 5 5Z"/>
<path d="M23 10C23 11.1046 22.1046 12 21 12C19.8954 12 19 11.1046 19 10C19 8.89543 19.8954 8 21 8C22.1046 8 23 8.89543 23 10Z"/>
<path d="M17 3C17 4.10457 16.1046 5 15 5C13.8954 5 13 4.10457 13 3C13 1.89543 13.8954 1 15 1C16.1046 1 17 1.89543 17 3Z"/>
<path d="M6 16C6 17.1046 5.10457 18 4 18C2.89543 18 2 17.1046 2 16C2 14.8954 2.89543 14 4 14C5.10457 14 6 14.8954 6 16Z"/>
<path d="M19 21C19 22.1046 18.1046 23 17 23C15.8954 23 15 22.1046 15 21C15 19.8954 15.8954 19 17 19C18.1046 19 19 19.8954 19 21Z"/>
<path fill-rule="evenodd" clip-rule="evenodd" d="M10 13L5 16L4.61413 15.3569L9.61413 12.3569L10 13Z"/>
<path fill-rule="evenodd" clip-rule="evenodd" d="M9 10L4 6L4.46852 5.41435L9.46852 9.41435L9 10Z"/>
<path fill-rule="evenodd" clip-rule="evenodd" d="M14 14L17 20L16.3292 20.3354L13.3292 14.3354L14 14Z"/>
<path fill-rule="evenodd" clip-rule="evenodd" d="M15 11L22 9L22.206 9.72114L15.206 11.7211L15 11Z"/>
<path fill-rule="evenodd" clip-rule="evenodd" d="M15 4L13 9L12.3036 8.72146L14.3036 3.72146L15 4Z"/>
</svg>
