<svg width="24" height="24" viewBox="0 0 24 24" fill="none" xmlns="http://www.w3.org/2000/svg">
<path d="M13.0766 9.54357C12.4356 8.9026 12.4216 7.88462 13.0451 7.26112L16.6093 3.69689C17.2328 3.07338 18.2508 3.08744 18.8917 3.72842L20.2716 5.10827C20.9126 5.74924 20.9266 6.76721 20.3031 7.39072L16.7389 10.955C16.1154 11.5785 15.0974 11.5644 14.4564 10.9234" stroke="#F6F5F0" stroke-width="1.06427"/>
<path d="M9.54354 13.0766C8.90257 12.4357 7.8846 12.4216 7.26109 13.0451L3.69686 16.6093C3.07335 17.2328 3.08742 18.2508 3.72839 18.8918L5.10824 20.2716C5.74921 20.9126 6.76718 20.9267 7.39069 20.3032L10.9549 16.7389C11.5784 16.1154 11.5644 15.0974 10.9234 14.4565" stroke="#F6F5F0" stroke-width="1.06427"/>
<path d="M14.7907 8.79642L8.99415 14.593C8.95953 14.6276 8.94668 14.6709 8.96547 14.6897L9.31032 15.0346C9.3291 15.0533 9.3724 15.0405 9.40702 15.0059L15.2036 9.20929C15.2382 9.17467 15.2511 9.13137 15.2323 9.11259L14.8874 8.76774C14.8687 8.74895 14.8254 8.7618 14.7907 8.79642Z" stroke="#F6F5F0" stroke-width="0.887776"/>
</svg>
