<svg width="24" height="24" viewBox="0 0 24 24" fill="white" xmlns="http://www.w3.org/2000/svg">
<path fill-rule="evenodd" clip-rule="evenodd" d="M19.9269 7.01444C20.3329 6.60848 20.3384 5.92757 19.8954 5.48453L18.5155 4.10469C18.0725 3.66165 17.3916 3.66719 16.9856 4.07315L13.4214 7.63739C13.0154 8.04335 13.0099 8.72426 13.4529 9.16729L12.7004 9.91984C11.8614 9.08092 11.8278 7.72589 12.6688 6.88484L16.2331 3.3206C17.0741 2.47955 18.4291 2.51322 19.2681 3.35214L20.6479 4.73198C21.4868 5.5709 21.5205 6.92594 20.6794 7.76699L17.1152 11.3312C16.2742 12.1723 14.9191 12.1386 14.0802 11.2997L14.8328 10.5471C15.2758 10.9902 15.9567 10.9846 16.3627 10.5787L19.9269 7.01444ZM11.2997 14.0802C12.1386 14.9191 12.1723 16.2741 11.3313 17.1152L7.76702 20.6794C6.92597 21.5205 5.57093 21.4868 4.73201 20.6479L3.35217 19.268C2.51325 18.4291 2.47958 17.0741 3.32063 16.233L6.88487 12.6688C7.72592 11.8277 9.08096 11.8614 9.91987 12.7003L9.16732 13.4529C8.72429 13.0098 8.04338 13.0154 7.63742 13.4213L4.07318 16.9856C3.66722 17.3915 3.66168 18.0724 4.10472 18.5155L5.48456 19.8953C5.9276 20.3384 6.60851 20.3328 7.01447 19.9269L10.5787 16.3626C10.9847 15.9567 10.9902 15.2758 10.5472 14.8327L11.2997 14.0802ZM8.68025 14.2791C8.62104 14.3383 8.56422 14.4198 8.5342 14.521C8.50978 14.6033 8.47258 14.8246 8.65157 15.0035L8.99642 15.3484C9.17541 15.5274 9.39663 15.4902 9.47894 15.4658C9.58015 15.4357 9.66166 15.3789 9.72087 15.3197L15.5175 9.52313C15.5767 9.46392 15.6335 9.38241 15.6635 9.2812C15.6879 9.19888 15.7251 8.97766 15.5461 8.79868L15.2013 8.45382C15.0223 8.27484 14.8011 8.31204 14.7188 8.33645C14.6176 8.36647 14.5361 8.42329 14.4768 8.48251L8.68025 14.2791Z" />
</svg>