<svg width="24" height="24" viewBox="0 0 24 24" fill="none" xmlns="http://www.w3.org/2000/svg">
<g clip-path="url(#clip0_1111_8)">
<path d="M12.5622 6.3502C12.5622 5.44372 13.272 4.71396 14.1538 4.71396L19.1944 4.71396C20.0762 4.71396 20.786 5.44372 20.786 6.3502L20.786 8.3016C20.786 9.20807 20.0762 9.93783 19.1944 9.93783L14.1538 9.93783C13.272 9.93783 12.5622 9.20807 12.5622 8.3016" stroke="#F6F5F0" stroke-width="1.06427"/>
<path d="M9.54354 13.0766C8.90257 12.4356 7.8846 12.4216 7.26109 13.0451L3.69686 16.6093C3.07335 17.2328 3.08742 18.2508 3.72839 18.8917L5.10824 20.2716C5.74921 20.9126 6.76718 20.9266 7.39069 20.3031L10.9549 16.7389C11.5784 16.1154 11.5644 15.0974 10.9234 14.4564" stroke="#F6F5F0" stroke-width="1.06427"/>
<path d="M8.8156 2.13793L10.0552 6.04308" stroke="#F6F5F0"/>
<path d="M3.18088 9.01013L7.33734 9.51233" stroke="#F6F5F0"/>
<path d="M4.06585 4.04631L8.08752 7.31668" stroke="#F6F5F0"/>
</g>
<defs>
<clipPath id="clip0_1111_8">
<rect width="24" height="24" fill="white"/>
</clipPath>
</defs>
</svg>
