<svg width="24" height="24" viewBox="0 0 24 24" fill="white" xmlns="http://www.w3.org/2000/svg">
<path fill-rule="evenodd" clip-rule="evenodd" d="M8.3391 2.28922L9.57875 6.19437L10.5319 5.89181L9.29223 1.98666L8.3391 2.28922ZM19.1944 9.4057C19.7685 9.4057 20.2539 8.92814 20.2539 8.30159L20.2539 6.3502C20.2539 5.72365 19.7685 5.24609 19.1944 5.24609H14.1538C13.5797 5.24609 13.0943 5.72366 13.0943 6.3502L12.0301 6.3502C12.0301 5.16379 12.9644 4.18183 14.1538 4.18183H19.1944C20.3839 4.18183 21.3182 5.16379 21.3182 6.3502L21.3182 8.30159C21.3182 9.488 20.3838 10.47 19.1944 10.47L14.1538 10.47C12.9644 10.47 12.0301 9.488 12.0301 8.3016L13.0943 8.3016C13.0943 8.92814 13.5797 9.4057 14.1538 9.4057L19.1944 9.4057ZM11.2997 14.0802C12.1386 14.9191 12.1723 16.2741 11.3313 17.1152L7.76702 20.6794C6.92597 21.5204 5.57093 21.4868 4.73201 20.6479L3.35217 19.268C2.51325 18.4291 2.47958 17.0741 3.32063 16.233L6.88487 12.6688C7.72592 11.8277 9.08096 11.8614 9.91987 12.7003L9.16732 13.4529C8.72429 13.0098 8.04338 13.0154 7.63742 13.4213L4.07318 16.9856C3.66722 17.3915 3.66168 18.0724 4.10472 18.5155L5.48456 19.8953C5.9276 20.3383 6.60851 20.3328 7.01447 19.9268L10.5787 16.3626C10.9847 15.9567 10.9902 15.2757 10.5472 14.8327L11.2997 14.0802ZM7.2774 10.0087L3.12094 9.50653L3.24089 8.51375L7.39735 9.01595L7.2774 10.0087ZM3.75044 4.43425L7.77211 7.70462L8.40303 6.92877L4.38136 3.6584L3.75044 4.43425Z"/>
</svg>
