<svg width="24" height="24" viewBox="0 0 24 24" fill="white" xmlns="http://www.w3.org/2000/svg">
<path d="M14.3744 5.53553L15.3172 6.47834L6.83191 14.9636L5.8891 14.0208L14.3744 5.53553Z"/>
<path d="M15.7886 6.94975L17.2028 8.36396L8.71752 16.8492L7.30331 15.435L15.7886 6.94975Z"/>
<path d="M17.6742 8.83537L18.617 9.77817L10.1317 18.2635L9.18893 17.3206L17.6742 8.83537Z"/>
<path d="M17.3442 2.56569C17.6566 2.25327 18.1813 2.27136 18.516 2.60609L21.5465 5.63655C21.8812 5.97128 21.8993 6.49591 21.5869 6.80833L19.3241 9.07107L15.0815 4.82843L17.3442 2.56569Z"/>
<path d="M5.18201 14.7279L9.42465 18.9706L4.12135 20.0312L5.18201 14.7279Z"/>
</svg>
