<svg width="24" height="24" viewBox="0 0 24 24" fill="white" xmlns="http://www.w3.org/2000/svg">
<path d="M13.2443 5L13.1023 15.4545H11.4545L11.3125 5H13.2443ZM12.2784 19.6591C11.928 19.6591 11.6274 19.5336 11.3764 19.2827C11.1255 19.0317 11 18.7311 11 18.3807C11 18.0303 11.1255 17.7296 11.3764 17.4787C11.6274 17.2277 11.928 17.1023 12.2784 17.1023C12.6288 17.1023 12.9295 17.2277 13.1804 17.4787C13.4313 17.7296 13.5568 18.0303 13.5568 18.3807C13.5568 18.6127 13.4976 18.8258 13.3793 19.0199C13.2656 19.214 13.1117 19.3703 12.9176 19.4886C12.7282 19.6023 12.5152 19.6591 12.2784 19.6591Z"/>
</svg>
