<svg width="24" height="24" viewBox="0 0 24 24" fill="white" xmlns="http://www.w3.org/2000/svg">
<path d="M14.0428 23.3328L15.8258 21.5768L15.0018 20.5867L14.0428 23.3328Z" fill="#BDC3C7"/>
<path d="M11.7216 16.6731L17.2926 23.3459L23.3279 14.2148L11.7216 16.6731Z"/>
<path d="M13.6642 18.9998L14.0428 23.3459L15.0018 20.5999L23.3279 14.2148L13.6642 18.9998Z" fill="#95A5A6"/>
<path d="M13.8502 10.4185L15.6332 8.66255L14.8091 7.67252L13.8502 10.4185Z" fill="#BDC3C7"/>
<path d="M11.5289 3.75893L17.1 10.4317L23.1353 1.30054L11.5289 3.75893Z"/>
<path d="M14.8091 7.68568L23.1353 1.30054L13.4716 6.08562L13.8502 10.4317L14.8091 7.68568Z" fill="#95A5A6"/>
<path d="M4.26447 17.9706L3.44042 16.9806L2.48151 19.7266L4.26447 17.9706Z" fill="#BDC3C7"/>
<path d="M5.73125 19.7398L11.7665 10.6086L0.160217 13.067L5.73125 19.7398Z"/>
<path d="M11.7666 10.6086L2.10291 15.3937L2.4815 19.7398L3.44042 16.9937L11.7666 10.6086Z" fill="#95A5A6"/>
</svg>
