<svg width="24" height="24" viewBox="0 0 24 24" fill="white" xmlns="http://www.w3.org/2000/svg">
<g clip-path="url(#clip0_1112_18)">
<path d="M8.87513 5.39831C8.72511 5.64812 8.58975 5.87354 8.45661 6.01063L7.93412 6.54868L3.78666 2.8696L3.43833 3.2283L7.23746 7.26608L5.66136 9.22035L4.32832 8.27433L4.03413 8.57727L5.30442 9.91917L6.683 11.1496L6.97718 10.8466L5.99247 9.54189L7.89967 7.90915L12.0471 11.5882L12.3955 11.2295L8.59633 7.19175L9.11883 6.6537C9.25196 6.51661 9.47331 6.37469 9.71862 6.21741C10.4361 5.75743 11.3584 5.1661 10.8777 4.17997C9.8779 3.72844 9.31387 4.66769 8.87513 5.39831Z"/>
<path d="M16.9662 9.44787C16.8162 9.69768 16.6808 9.9231 16.5477 10.0602L16.0252 10.5982L11.8777 6.91916L11.5294 7.27786L15.3285 11.3156L13.7524 13.2699L12.4194 12.3239L12.1252 12.6268L13.3955 13.9687L14.7741 15.1991L15.0682 14.8962L14.0835 13.5914L15.9907 11.9587L20.1382 15.6378L20.4865 15.2791L16.6874 11.2413L17.2099 10.7033C17.343 10.5662 17.5644 10.4242 17.8097 10.267C18.5271 9.80699 19.4494 9.21566 18.9688 8.22953C17.969 7.778 17.4049 8.71725 16.9662 9.44787Z"/>
<path d="M9.96619 15.4479C9.81618 15.6977 9.68081 15.9231 9.54768 16.0602L9.02518 16.5982L4.87772 12.9192L4.52939 13.2779L8.32852 17.3156L6.75242 19.2699L5.41938 18.3239L5.1252 18.6268L6.39548 19.9687L7.77406 21.1991L8.06824 20.8962L7.08353 19.5914L8.99074 17.9587L13.1382 21.6378L13.4865 21.2791L9.6874 17.2413L10.2099 16.7033C10.343 16.5662 10.5644 16.4242 10.8097 16.267C11.5271 15.807 12.4494 15.2157 11.9688 14.2295C10.969 13.778 10.4049 14.7173 9.96619 15.4479Z"/>
</g>
<defs>
<clipPath id="clip0_1112_18">
<rect width="24" height="24" fill="white"/>
</clipPath>
</defs>
</svg>
