<svg width="24" height="24" viewBox="0 0 24 24" fill="white" xmlns="http://www.w3.org/2000/svg">
<path d="M21.4719 11.2389C21.4719 11.2389 20.8162 8.15229 18.4517 7.99463C16.0872 7.83697 15.9039 8.95043 13.4365 8.68064L8.47023 3.86484L6.78265 3.79773L9.17951 8.41158L6.64976 8.25217L4.82126 6.30785L3.80939 6.26439L5.08233 10.1905L21.4719 11.2389Z"/>
<path fill-rule="evenodd" clip-rule="evenodd" d="M18.8913 13.996L6.48004 13.4996L6.52001 12.5004L19.1088 13.0039L20.1018 13.414L20.7901 14.3291L21 15.4537V16.618L20.3973 17.8235L19.5672 18.4779L18.4464 18.8899L17.0089 19.0008L7.24952 18.5933L8.5 20C8.68697 20.2032 8.67379 20.5195 8.47057 20.7065C8.26734 20.8935 7.95104 20.8803 7.76407 20.6771L4.63204 18.3385C4.44508 18.1353 4.45826 17.819 4.66148 17.632L8 15.5C8.20323 15.313 8.51953 15.3262 8.7065 15.5294C8.89346 15.7327 8.88028 16.049 8.67706 16.2359L7.29115 17.5941L16.9911 17.9992L18.2314 17.9035L19.073 17.5941L19.6027 17.1765L20 16.382V15.5463L19.8501 14.7429L19.4672 14.2338L18.8913 13.996Z"/>
</svg>
