<svg width="24" height="24" viewBox="0 0 24 24" fill="white" xmlns="http://www.w3.org/2000/svg">
<path fill-rule="evenodd" clip-rule="evenodd" d="M10.2289 0.359222L12.3103 2.38732L11.0311 3.63376L8.94964 1.60566L10.2289 0.359222ZM12.74 2.80262L14.8215 4.83072L13.5422 6.07716L11.4608 4.04906L12.74 2.80262ZM10.6208 4.03578L8.53937 2.00768L7.26014 3.25412L9.3416 5.28222L10.6208 4.03578ZM11.0479 4.45333L13.1294 6.48144L11.8501 7.72787L9.7687 5.69977L11.0479 4.45333ZM21.1047 10.9388L19.0233 8.91073L17.744 10.1572L19.8255 12.1853L21.1047 10.9388ZM21.5344 11.3541L23.6159 13.3822L22.3366 14.6287L20.2552 12.6006L21.5344 11.3541ZM19.4152 12.5873L17.3338 10.5592L16.0545 11.8056L18.136 13.8337L19.4152 12.5873ZM19.8423 13.0048L21.9238 15.0329L20.6446 16.2794L18.5631 14.2513L19.8423 13.0048ZM17.4515 3.09593L10.4779 9.89086C12.2308 9.93803 13.7719 11.4411 13.8238 13.1479L20.7959 6.35454L17.4515 3.09593ZM10.758 10.4328C11.3869 10.5968 11.9573 10.9264 12.4069 11.3853C12.8173 11.8045 13.113 12.3176 13.2668 12.8773C13.428 13.4634 13.428 14.0805 13.2669 14.6666C13.1058 15.2527 12.7892 15.7872 12.3489 16.2163L10.1626 14.0861L8.41409 15.3282C8.48836 15.439 8.52126 15.5712 8.50728 15.7028C8.4933 15.8343 8.43329 15.9572 8.33732 16.0508C8.22642 16.1588 8.07601 16.2195 7.91918 16.2195C7.76234 16.2195 7.61193 16.1588 7.50104 16.0508C7.39014 15.9427 7.32783 15.7962 7.32783 15.6433C7.32783 15.4905 7.39014 15.344 7.50104 15.2359C7.59435 15.1453 7.71605 15.0876 7.84685 15.072C7.97764 15.0564 8.11002 15.0839 8.22299 15.15L9.48558 13.4264L7.33116 11.3272C7.77156 10.8982 8.32008 10.5897 8.92161 10.4327C9.52313 10.2757 10.1565 10.2757 10.758 10.4328ZM1.89544 15.0364H1.16461C1.16461 19.3673 4.61216 22.8901 8.84974 22.8901V22.1433C5.01504 22.1433 1.89544 18.9556 1.89544 15.0364ZM4.0991 15.047H4.64725C4.64725 17.5176 6.52823 19.5271 8.84088 19.5271V20.1126C6.22647 20.1126 4.0991 17.84 4.0991 15.047Z"/>
</svg>
