<svg width="24" height="24" viewBox="0 0 24 24" fill="white" xmlns="http://www.w3.org/2000/svg">
<path fill-rule="evenodd" clip-rule="evenodd" d="M3 3C1.89543 3 1 3.89543 1 5V19C1 20.1046 1.89543 21 3 21H21C22.1046 21 23 20.1046 23 19V5C23 3.89543 22.1046 3 21 3H3ZM3 4C2.44772 4 2 4.44772 2 5V19C2 19.5523 2.44772 20 3 20H21C21.5523 20 22 19.5523 22 19V5C22 4.44772 21.5523 4 21 4H3Z"/>
<path fill-rule="evenodd" clip-rule="evenodd" d="M11.1716 13.2175L14.3536 10.0355C14.5488 9.84027 14.5488 9.52369 14.3536 9.32843L11.1716 6.14645C10.9763 5.95118 10.6597 5.95118 10.4645 6.14645C10.2692 6.34171 10.2692 6.65829 10.4645 6.85355L12.7929 9.18198H4V10.182H12.7929L10.4645 12.5104C10.2692 12.7057 10.2692 13.0223 10.4645 13.2175C10.6597 13.4128 10.9763 13.4128 11.1716 13.2175Z"/>
<path d="M15 6C15 5.44772 15.4477 5 16 5H20C20.5523 5 21 5.44772 21 6V13C21 13.5523 20.5523 14 20 14H16C15.4477 14 15 13.5523 15 13V6Z"/>
</svg>
