<svg width="24" height="24" viewBox="0 0 24 24" fill="white" xmlns="http://www.w3.org/2000/svg">
<path d="M17.9778 10.2072L20.4182 11.3601C21.1939 11.7239 21.1939 12.3193 20.4182 12.6831L13.4003 16C12.964 16.1809 12.4837 16.275 11.9972 16.275C11.5107 16.275 11.0304 16.1809 10.594 16L3.58177 12.6878C2.80608 12.324 2.80608 11.7286 3.58177 11.3648L6.02837 10.2025L10.0546 12.1019L10.1104 12.1255C10.7012 12.3698 11.3506 12.4968 12.0085 12.4968C12.6663 12.4968 13.3158 12.3698 13.9065 12.1255L13.9624 12.1019L17.9778 10.2072Z"/>
<path d="M17.9778 14.9322L20.4182 16.0851C21.1939 16.4489 21.1939 17.0443 20.4182 17.4081L13.4003 20.7251C12.964 20.9059 12.4837 21 11.9972 21C11.5107 21 11.0304 20.9059 10.594 20.7251L3.58177 17.4128C2.80608 17.049 2.80608 16.4536 3.58177 16.0898L6.02837 14.9275L10.0546 16.8269L10.1104 16.8505C10.7012 17.0949 11.3506 17.2219 12.0085 17.2219C12.6663 17.2219 13.3158 17.0949 13.9065 16.8505L13.9624 16.8269L17.9778 14.9322Z" />
<path d="M20.4182 7.91083C21.1939 7.54699 21.1939 6.95635 20.4182 6.58783L13.406 3.27554C12.9685 3.09431 12.4876 3 12 3C11.5124 3 11.0315 3.09431 10.594 3.27554L3.58177 6.59252C2.80608 6.95635 2.80608 7.54699 3.58177 7.91552L10.594 11.2278C11.0304 11.4087 11.5107 11.5027 11.9972 11.5027C12.4837 11.5027 12.964 11.4087 13.4003 11.2278L20.4182 7.91083Z"/>
</svg>