<svg width="24" height="24" viewBox="0 0 24 24" fill="white" xmlns="http://www.w3.org/2000/svg">
<path d="M7 11.5C7 12.8807 5.88071 14 4.5 14C3.11929 14 2 12.8807 2 11.5C2 10.1193 3.11929 8.99999 4.5 8.99999C5.88071 8.99999 7 10.1193 7 11.5Z" fill-opacity="0.2"/>
<path d="M22 11.5C22 12.8807 20.8807 14 19.5 14C18.1193 14 17 12.8807 17 11.5C17 10.1193 18.1193 8.99999 19.5 8.99999C20.8807 8.99999 22 10.1193 22 11.5Z" fill-opacity="0.75"/>
<path d="M9.5 7.16987C8.30427 7.86022 6.77529 7.45053 6.08494 6.2548C5.39458 5.05907 5.80427 3.53009 7 2.83974C8.19573 2.14938 9.72471 2.55907 10.4151 3.7548C11.1054 4.95053 10.6957 6.47951 9.5 7.16987Z" fill-opacity="0.35"/>
<path d="M17 20.1602C15.8043 20.8506 14.2753 20.4409 13.5849 19.2452C12.8946 18.0495 13.3043 16.5205 14.5 15.8301C15.6957 15.1398 17.2247 15.5495 17.9151 16.7452C18.6054 17.9409 18.1957 19.4699 17 20.1602Z" />
<path d="M14.4389 7.13514C13.2336 6.46166 12.8024 4.9386 13.4759 3.73328C14.1494 2.52796 15.6724 2.09682 16.8778 2.7703C18.0831 3.44378 18.5142 4.96684 17.8407 6.17216C17.1673 7.37748 15.6442 7.80862 14.4389 7.13514Z" fill-opacity="0.5"/>
<path d="M7.12223 20.2297C5.91691 19.5562 5.48577 18.0331 6.15925 16.8278C6.83272 15.6225 8.35579 15.1914 9.56111 15.8648C10.7664 16.5383 11.1976 18.0614 10.5241 19.2667C9.85061 20.472 8.32755 20.9032 7.12223 20.2297Z" fill-opacity="0.1"/>
</svg>
