<svg width="24" height="24" viewBox="0 0 24 24" fill="white" xmlns="http://www.w3.org/2000/svg">
<path fill-rule="evenodd" clip-rule="evenodd" d="M16.6626 6.53846C16.4336 5.88352 16.0925 5.27749 15.6526 4.75625C15.6143 4.71091 15.5753 4.66621 15.5355 4.62218C14.5979 3.58351 13.3261 3 12 3C10.6739 3 9.40215 3.58351 8.46447 4.62218C8.42471 4.66621 8.3857 4.71091 8.34744 4.75625C7.48307 5.78039 7 7.13184 7 8.53846V11H8.65443V8.53846C8.65443 7.55561 9.00691 6.61301 9.63433 5.91802C9.67429 5.87376 9.71516 5.83072 9.75689 5.78895C10.3703 5.17489 11.1692 4.8326 12 4.8326C12.8308 4.8326 13.6297 5.17489 14.2431 5.78895C14.2848 5.83072 14.3257 5.87376 14.3657 5.91802C14.9931 6.61301 15.3456 7.55561 15.3456 8.53846L17 8.53846C17 7.84775 16.8835 7.17034 16.6626 6.53846Z"/>
<path fill-rule="evenodd" clip-rule="evenodd" d="M6 11C5.44772 11 5 11.4477 5 12V21C5 21.5523 5.44772 22 6 22H18C18.5523 22 19 21.5523 19 21V12C19 11.4477 18.5523 11 18 11H6ZM13 17.7324C13.5978 17.3866 14 16.7403 14 16C14 14.8954 13.1046 14 12 14C10.8954 14 10 14.8954 10 16C10 16.7403 10.4022 17.3866 11 17.7324V20H13V17.7324Z"/>
</svg>
