<svg width="24" height="24" viewBox="0 0 24 24" fill="none" xmlns="http://www.w3.org/2000/svg">
<path d="M10.3018 6.55178L12 4.85355L13.6982 6.55178L13.8075 6.66103L13.9541 6.61217L19.1047 4.89528L17.3878 10.0459L17.339 10.1925L17.4482 10.3018L19.1464 12L17.4482 13.6982L17.339 13.8075L17.3878 13.9541L19.1047 19.1047L13.9541 17.3878L13.8075 17.339L13.6982 17.4482L12 19.1464L10.3018 17.4482L10.1925 17.339L10.0459 17.3878L4.89528 19.1047L6.61217 13.9541L6.66103 13.8075L6.55178 13.6982L4.85355 12L6.55178 10.3018L6.66103 10.1925L6.61217 10.0459L4.89528 4.89528L10.0459 6.61217L10.1925 6.66103L10.3018 6.55178Z" fill="white" stroke="black" stroke-width="0.5"/>
</svg>
