<svg width="24" height="24" viewBox="0 0 24 24" fill="white" xmlns="http://www.w3.org/2000/svg">
<rect x="5" y="2" width="4.24262" height="4.24262" transform="rotate(45 5 2)"/>
<rect x="20" y="16" width="4.24262" height="4.24262" transform="rotate(45 20 16)"/>
<path fill-rule="evenodd" clip-rule="evenodd" d="M17.0712 5.75H9.00003V4.25H17.0712C18.6635 4.25 19.9106 4.73776 20.7562 5.5542C21.5994 6.3683 21.984 7.45402 21.9457 8.52677C21.8683 10.6956 20.0846 12.75 17.0712 12.75H7.5009C7.50083 12.75 7.5 12.75 7.5 12C7.5 11.25 7.50003 11.25 7.5001 11.25H17.0712C19.3078 11.25 20.3991 9.80444 20.4467 8.47323C20.4709 7.79598 20.2305 7.1317 19.7143 6.6333C19.2005 6.13724 18.3539 5.75 17.0712 5.75ZM4.1444 12.5765C4.92362 11.7583 6.06396 11.25 7.5001 11.25L7.5 12L7.5009 12.75C6.43705 12.75 5.70139 13.1167 5.2306 13.611C4.75044 14.1152 4.5 14.7994 4.5 15.5C4.5 16.2006 4.75044 16.8848 5.2306 17.389C5.70138 17.8833 6.43614 18.25 7.5 18.25H16V19.75H7.5C6.06385 19.75 4.92361 19.2417 4.14439 18.4235C3.37456 17.6152 3 16.5494 3 15.5C3 14.4506 3.37456 13.3848 4.1444 12.5765Z"/>
</svg>
