<svg width="24" height="24" viewBox="0 0 24 24" fill="white" xmlns="http://www.w3.org/2000/svg">
<path fill-rule="evenodd" clip-rule="evenodd" d="M13.5 2.5C13.5 3.32843 12.8284 4 12 4C11.1716 4 10.5 3.32843 10.5 2.5C10.5 1.67157 11.1716 1 12 1C12.8284 1 13.5 1.67157 13.5 2.5ZM12 4H12.5V8H19C20.1046 8 21 8.89543 21 10V20C21 21.1046 20.1046 22 19 22H5C3.89543 22 3 21.1046 3 20V10C3 8.89543 3.89543 8 5 8H11.5V4H12ZM11 14C11 15.6569 9.65685 17 8 17C6.34315 17 5 15.6569 5 14C5 12.3431 6.34315 11 8 11C9.65685 11 11 12.3431 11 14ZM16 17C17.6569 17 19 15.6569 19 14C19 12.3431 17.6569 11 16 11C14.3431 11 13 12.3431 13 14C13 15.6569 14.3431 17 16 17Z"/>
<path d="M9 14C9 14.5523 8.55228 15 8 15C7.44772 15 7 14.5523 7 14C7 13.4477 7.44772 13 8 13C8.55228 13 9 13.4477 9 14Z"/>
<path d="M17 14C17 14.5523 16.5523 15 16 15C15.4477 15 15 14.5523 15 14C15 13.4477 15.4477 13 16 13C16.5523 13 17 13.4477 17 14Z"/>
</svg>
