<svg width="24" height="24" viewBox="0 0 24 24" fill="white" xmlns="http://www.w3.org/2000/svg">
<path d="M3.77219 4.18377C3.90831 3.77543 4.29046 3.5 4.72089 3.5H19.2794C19.7098 3.5 20.0919 3.77543 20.228 4.18377C20.4439 4.8313 20.3564 5.5 19.6739 5.5H4.44873C3.76618 5.5 3.55635 4.8313 3.77219 4.18377Z"/>
<path d="M8.50013 3.5L9.50007 2H14.5001L15.5001 3.5H14.5001L14.0001 2.5H10.0001L9.50013 3.5H8.50013Z"/>
<path fill-rule="evenodd" clip-rule="evenodd" d="M5.06448 6C4.48766 6 4.03045 6.48668 4.06643 7.06238L4.94143 21.0624C4.97437 21.5894 5.41142 22 5.93948 22H18.0606C18.5886 22 19.0257 21.5894 19.0586 21.0624L19.9336 7.06238C19.9696 6.48668 19.5124 6 18.9356 6H5.06448ZM13 8H11V20H13V8ZM6.50003 8H8.50003L9.00003 20H7.00003L6.50003 8ZM17.5 8H15.5L15 20H17L17.5 8Z"/>
</svg>
