<svg width="24" height="24" viewBox="0 0 24 24" fill="white" xmlns="http://www.w3.org/2000/svg">
<path fill-rule="evenodd" clip-rule="evenodd" d="M5.0868 7C4.50176 7 4.04167 7.50003 4.09025 8.08305L5.25692 22.083C5.30011 22.6013 5.73338 23 6.25347 23H17.7465C18.2666 23 18.6999 22.6013 18.7431 22.083L19.9097 8.08305C19.9583 7.50003 19.4982 7 18.9132 7H5.0868ZM6.0868 8C5.50176 8 5.04167 8.50003 5.09025 9.08305L6.09025 21.083C6.13344 21.6013 6.56671 22 7.0868 22H16.9132C17.4333 22 17.8666 21.6013 17.9097 21.083L18.9097 9.08305C18.9583 8.50003 18.4982 8 17.9132 8H6.0868Z"/>
<path d="M3.77214 4.18377C3.90825 3.77543 4.29039 3.5 4.72082 3.5H19.2793C19.7097 3.5 20.0919 3.77543 20.228 4.18377L20.5613 5.18377C20.7772 5.8313 20.2952 6.5 19.6126 6.5H4.38749C3.70493 6.5 3.22296 5.8313 3.4388 5.18377L3.77214 4.18377Z"/>
<path d="M8.50006 3.5L9.50006 1.5H14.5001L15.5001 3.5H14.5001L14.0001 2.5H10.0001L9.50006 3.5H8.50006Z"/>
<path d="M10.0434 10.0416C10.0197 9.47351 10.4739 9 11.0425 9H12.9575C13.5261 9 13.9803 9.47351 13.9566 10.0416L13.5399 20.0416C13.5176 20.5773 13.0769 21 12.5408 21H11.4592C10.9231 21 10.4824 20.5773 10.4601 20.0416L10.0434 10.0416Z"/>
<path d="M5.84025 10.083C5.79167 9.50003 6.25176 9 6.8368 9H8.2908C8.82689 9 9.26761 9.42274 9.28993 9.95837L9.7066 19.9584C9.73027 20.5265 9.27608 21 8.70747 21H7.67013C7.15004 21 6.71678 20.6013 6.67359 20.083L5.84025 10.083Z"/>
<path d="M14.7101 9.95837C14.7324 9.42274 15.1731 9 15.7092 9H17.1632C17.7482 9 18.2083 9.50003 18.1597 10.083L17.3264 20.083C17.2832 20.6013 16.85 21 16.3299 21H15.2925C14.7239 21 14.2697 20.5265 14.2934 19.9584L14.7101 9.95837Z"/>
</svg>
