<svg width="24" height="24" viewBox="0 0 24 24" fill="white" xmlns="http://www.w3.org/2000/svg">
<path fill-rule="evenodd" clip-rule="evenodd" d="M12 14.25C13.2426 14.25 14.25 13.2426 14.25 12C14.25 10.7574 13.2426 9.75 12 9.75C10.7574 9.75 9.75 10.7574 9.75 12C9.75 13.2426 10.7574 14.25 12 14.25ZM12 15C13.6569 15 15 13.6569 15 12C15 10.3431 13.6569 9 12 9C10.3431 9 9 10.3431 9 12C9 13.6569 10.3431 15 12 15Z"/>
<path fill-rule="evenodd" clip-rule="evenodd" d="M15.9758 15.4236C16.7989 14.4678 17.2501 13.2475 17.2467 11.9861C17.2434 10.7248 16.7858 9.50683 15.9576 8.55538L16.5258 8.06085C16.5263 8.06143 16.5268 8.06201 16.5273 8.06258C16.6921 8.25209 16.8441 8.45084 16.9827 8.65747C17.6398 9.63692 17.9968 10.7936 18 11.9841C18.0031 13.1746 17.6522 14.3332 17.0003 15.3161C16.8624 15.5241 16.711 15.7242 16.5466 15.9151L15.9758 15.4236Z" fill-opacity="0.8"/>
<path fill-rule="evenodd" clip-rule="evenodd" d="M18.3199 6.49933L18.7888 6.09128C18.9537 6.28074 19.11 6.47636 19.2576 6.67755C20.381 8.2094 20.9949 10.0637 21 11.9762C21.0051 13.8887 20.401 15.7462 19.2856 17.284C19.1396 17.4852 18.9849 17.681 18.8216 17.8708C18.821 17.8714 18.8205 17.8721 18.8199 17.8727L18.349 17.4671C19.6633 15.9408 20.3838 13.9921 20.3785 11.9778C20.3731 9.96421 19.6428 8.01988 18.3212 6.50072C18.3208 6.50026 18.3203 6.4998 18.3199 6.49933Z" fill-opacity="0.6"/>
<path fill-rule="evenodd" clip-rule="evenodd" d="M8.02419 8.57637C7.20112 9.53219 6.74994 10.7525 6.75328 12.0139C6.75661 13.2752 7.21424 14.4932 8.04236 15.4446L7.47418 15.9391C7.47368 15.9386 7.47318 15.938 7.47268 15.9374C7.30786 15.7479 7.15589 15.5492 7.01727 15.3425C6.36023 14.3631 6.00318 13.2064 6.00003 12.0159C5.99688 10.8254 6.3478 9.66679 6.99966 8.68388C7.1376 8.47589 7.28902 8.27576 7.45341 8.08486L8.02419 8.57637Z" fill-opacity="0.8"/>
<path fill-rule="evenodd" clip-rule="evenodd" d="M5.68005 17.5007L5.21123 17.9087C5.04632 17.7193 4.88998 17.5236 4.74244 17.3225C3.61897 15.7906 3.00506 13.9363 3 12.0238C2.99494 10.1113 3.59903 8.25381 4.71438 6.71603C4.86037 6.51475 5.01511 6.31895 5.1784 6.12922C5.17895 6.12858 5.17951 6.12793 5.18006 6.12729L5.65104 6.53285C4.3367 8.05918 3.61621 10.0079 3.62154 12.0222C3.62686 14.0358 4.35721 15.9801 5.67884 17.4993C5.67925 17.4997 5.67965 17.5002 5.68005 17.5007Z" fill-opacity="0.6"/>
<path d="M13 12C13 12.5523 12.5523 13 12 13C11.4477 13 11 12.5523 11 12C11 11.4477 11.4477 11 12 11C12.5523 11 13 11.4477 13 12Z"/>
</svg>
