<svg width="24" height="24" viewBox="0 0 24 24" fill="white" xmlns="http://www.w3.org/2000/svg">
<path fill-rule="evenodd" clip-rule="evenodd" d="M3 3C1.89543 3 1 3.89543 1 5V19C1 20.1046 1.89543 21 3 21H21C22.1046 21 23 20.1046 23 19V5C23 3.89543 22.1046 3 21 3H3ZM3 4C2.44772 4 2 4.44772 2 5V19C2 19.5523 2.44772 20 3 20H21C21.5523 20 22 19.5523 22 19V5C22 4.44772 21.5523 4 21 4H3Z"/>
<path fill-rule="evenodd" clip-rule="evenodd" d="M13.3284 13.2175L10.1464 10.0355C9.95118 9.84027 9.95118 9.52369 10.1464 9.32843L13.3284 6.14645C13.5237 5.95118 13.8403 5.95118 14.0355 6.14645C14.2308 6.34171 14.2308 6.65829 14.0355 6.85355L11.7071 9.18198H20.5V10.182H11.7071L14.0355 12.5104C14.2308 12.7057 14.2308 13.0223 14.0355 13.2175C13.8403 13.4128 13.5237 13.4128 13.3284 13.2175Z"/>
</svg>
