<svg width="24" height="24" viewBox="0 0 24 24" fill="white" xmlns="http://www.w3.org/2000/svg">
<path d="M10.2816 15.2412V15.0429C10.2868 14.1227 10.3747 13.3905 10.5454 12.8465C10.7212 12.3025 10.9695 11.8653 11.2901 11.5348C11.6108 11.1992 12.0013 10.8916 12.4616 10.612C12.7771 10.4188 13.059 10.2078 13.3072 9.97903C13.5606 9.74515 13.7598 9.48586 13.9046 9.20114C14.0494 8.91135 14.1218 8.5885 14.1218 8.2326C14.1218 7.83095 14.0261 7.48268 13.8348 7.1878C13.6434 6.89291 13.3848 6.66413 13.059 6.50143C12.7383 6.33874 12.3788 6.25739 11.9806 6.25739C11.6134 6.25739 11.2643 6.33619 10.9333 6.4938C10.6074 6.64633 10.3359 6.8802 10.1187 7.19542C9.90665 7.50556 9.78769 7.89959 9.76183 8.3775H7C7.02586 7.4115 7.26377 6.60311 7.71373 5.95234C8.16886 5.30156 8.76881 4.81347 9.51358 4.48808C10.2635 4.16269 11.091 4 11.9961 4C12.984 4 13.8529 4.17032 14.6028 4.51096C15.3579 4.85161 15.9449 5.33715 16.3638 5.96759C16.788 6.59295 17 7.33524 17 8.19447C17 8.77407 16.9043 9.29266 16.713 9.75024C16.5268 10.2078 16.2604 10.6146 15.9139 10.9704C15.5674 11.3263 15.1562 11.6441 14.6804 11.9237C14.2614 12.1779 13.9175 12.4423 13.6486 12.7169C13.3848 12.9914 13.1883 13.3143 13.059 13.6854C12.9348 14.0515 12.8702 14.504 12.865 15.0429V15.2412H10.2816ZM11.6315 20C11.166 20 10.7652 19.8373 10.429 19.5119C10.0928 19.1865 9.92475 18.79 9.92475 18.3222C9.92475 17.8646 10.0928 17.4731 10.429 17.1478C10.7652 16.8224 11.166 16.6597 11.6315 16.6597C12.0918 16.6597 12.49 16.8224 12.8262 17.1478C13.1676 17.4731 13.3382 17.8646 13.3382 18.3222C13.3382 18.6323 13.2581 18.9145 13.0978 19.1687C12.9426 19.4229 12.7357 19.6263 12.4771 19.7788C12.2237 19.9263 11.9418 20 11.6315 20Z"/>
</svg>
