<svg width="24" height="24" viewBox="0 0 24 24" fill="white" xmlns="http://www.w3.org/2000/svg">
<path d="M10.9261 15.6534V15.5682C10.9356 14.6638 11.0303 13.9441 11.2102 13.4091C11.3902 12.8741 11.6458 12.4408 11.9773 12.1094C12.3087 11.7779 12.7064 11.4725 13.1705 11.1932C13.4498 11.0227 13.7008 10.8215 13.9233 10.5895C14.1458 10.3527 14.321 10.0805 14.4489 9.77273C14.5814 9.46496 14.6477 9.12405 14.6477 8.75C14.6477 8.28598 14.5388 7.88352 14.321 7.54261C14.1032 7.2017 13.812 6.93892 13.4474 6.75426C13.0829 6.5696 12.678 6.47727 12.233 6.47727C11.8447 6.47727 11.4706 6.55777 11.1108 6.71875C10.7509 6.87973 10.4503 7.13305 10.2088 7.47869C9.96733 7.82434 9.82765 8.27652 9.78977 8.83523H8C8.03788 8.0303 8.24621 7.34138 8.625 6.76847C9.00852 6.19555 9.51278 5.75758 10.1378 5.45455C10.7675 5.15152 11.4659 5 12.233 5C13.0663 5 13.7907 5.16572 14.4063 5.49716C15.0265 5.8286 15.5047 6.28314 15.8409 6.8608C16.1818 7.43845 16.3523 8.09659 16.3523 8.83523C16.3523 9.35606 16.2718 9.82718 16.1108 10.2486C15.9545 10.67 15.7273 11.0464 15.429 11.3778C15.1354 11.7093 14.7803 12.0028 14.3636 12.2585C13.947 12.5189 13.6132 12.7936 13.3622 13.0824C13.1113 13.3665 12.929 13.705 12.8153 14.098C12.7017 14.491 12.6402 14.9811 12.6307 15.5682V15.6534H10.9261ZM11.8352 19.858C11.4848 19.858 11.1842 19.7325 10.9332 19.4815C10.6823 19.2306 10.5568 18.9299 10.5568 18.5795C10.5568 18.2292 10.6823 17.9285 10.9332 17.6776C11.1842 17.4266 11.4848 17.3011 11.8352 17.3011C12.1856 17.3011 12.4863 17.4266 12.7372 17.6776C12.9882 17.9285 13.1136 18.2292 13.1136 18.5795C13.1136 18.8116 13.0545 19.0246 12.9361 19.2188C12.8224 19.4129 12.6686 19.5691 12.4744 19.6875C12.285 19.8011 12.072 19.858 11.8352 19.858Z"/>
</svg>
