<svg width="24" height="24" viewBox="0 0 24 24" fill="white" xmlns="http://www.w3.org/2000/svg">
<path d="M10.8123 19.2043L13.1909 19.2043L13.1893 13.2303L14.9436 14.788L16.6257 13.2944L12 9.18721L7.37428 13.2944L9.05634 14.788L10.8107 13.2303L10.8123 19.2043Z"/>
<path d="M3 17.0929V23.1644H21V17.0929H18.6006V20.9573H5.39941V17.0929H3Z"/>
<path d="M20.978 7.3796C20.978 7.3796 20.13 4.34021 17.7602 4.33117C15.3905 4.32214 15.2774 5.4449 12.7979 5.33041L7.5394 0.835602L5.85094 0.87448L8.53248 5.3289L5.99772 5.32848L4.05085 3.50269L3.03825 3.52278L4.55495 7.36133L20.978 7.3796Z"/>
</svg>
